<svg width="84" height="77" viewBox="0 0 84 77" fill="none" xmlns="http://www.w3.org/2000/svg">
<path d="M20.0399 75.3807C19.0822 74.9052 18.1446 74.3857 17.2338 73.8207C12.7668 71.0442 9.05653 67.2099 6.21155 62.8828C-5.20317 45.5142 -0.406683 20.0069 16.6712 7.688C33.7504 -4.63226 60.5835 -1.82358 74.4387 13.8101C88.2926 29.4438 86.9223 55.5147 71.4263 69.6446C68.3616 72.4385 64.8456 74.7863 61.0162 76.4878C60.4938 73.8996 59.7973 71.0949 58.8945 68.0339C56.1152 58.5997 54.0564 45.1443 59.4678 38.3678C62.4815 34.5923 63.8183 31.6928 63.9817 29.1192C64.1545 26.4161 63.8638 24.4743 62.8752 22.2386C62.6181 21.6577 62.081 21.3625 61.9109 20.4424C61.7984 19.832 61.4408 19.1936 61.1488 18.7862C58.8905 15.5396 54.6015 18.6367 54.6015 18.6367L43.6235 26.1771C35.8789 22.8877 28.0337 24.7067 23.5372 32.2818C20.6788 37.5532 19.6983 41.5517 22.1683 46.3583C23.0804 48.1319 25.9294 50.7428 28.3913 53.6156C30.8304 56.4589 32.8744 59.564 35.2774 61.2C36.2471 61.8931 37.2879 62.5195 38.3662 62.6651C38.9127 62.7372 39.5168 62.7092 40.066 62.617C41.5782 62.3646 43.0381 61.2788 44.2409 60.1196C45.0178 59.4024 45.5443 58.4581 45.6688 57.4017C46.1966 52.8863 41.5327 46.0538 39.4231 43.4575C43.3771 47.1289 47.7275 53.0439 47.2279 57.8038C47.0631 59.3703 46.3251 60.8461 44.9388 62.0294C43.5699 63.3128 41.9706 64.2103 40.6271 64.4841C39.7552 64.6617 39.0654 64.7605 38.2108 64.5936C35.5534 64.0754 33.0794 61.7449 30.6175 58.8815C29.2941 57.343 28.3164 55.8178 26.993 54.1738C27.869 60.0862 24.953 67.7909 20.0399 75.3807Z" fill="#2E005D"/>
</svg>
