<svg width="106" height="36" viewBox="0 0 106 36" fill="none" xmlns="http://www.w3.org/2000/svg">
<path d="M0 27.5486V7.73811C0 7.54503 0.0625342 7.3809 0.187504 7.24582C0.312375 7.11063 0.464102 7.04309 0.642587 7.04309H7.95178C10.7541 7.04309 13.0477 7.93119 14.8325 9.7076C15.7964 10.673 16.5282 11.8218 17.028 13.1542C17.5278 14.4864 17.7777 15.9828 17.7777 17.6433C17.7777 19.3039 17.5278 20.8051 17.028 22.147C16.5282 23.489 15.7964 24.6426 14.8325 25.608C13.9401 26.4769 12.9183 27.1334 11.767 27.5775C10.6158 28.0216 9.34399 28.2436 7.95178 28.2436H0.642587C0.464102 28.2436 0.312375 28.1761 0.187504 28.0409C0.0625342 27.9058 0 27.7417 0 27.5486ZM5.94374 22.9146H7.95178C8.45156 22.9146 8.96918 22.8469 9.50464 22.7117C10.0401 22.5767 10.522 22.3208 10.9505 21.9442C11.3788 21.5677 11.7313 21.0368 12.008 20.3514C12.2846 19.6659 12.4229 18.7729 12.4229 17.6723C12.4229 16.5717 12.2846 15.6787 12.008 14.9933C11.7313 14.3078 11.3743 13.7768 10.9371 13.4003C10.4997 13.0238 10.0178 12.768 9.49126 12.6328C8.96472 12.4976 8.45156 12.4301 7.95178 12.4301H5.94374C5.76526 12.4301 5.61353 12.4976 5.48866 12.6328C5.36369 12.768 5.30125 12.932 5.30125 13.1252V22.2195C5.30125 22.4125 5.36369 22.5767 5.48866 22.7117C5.61353 22.8469 5.76526 22.9146 5.94374 22.9146Z" fill="#2E005D"/>
<path d="M19.011 17.6434C19.011 16.1374 19.2788 14.7182 19.8142 13.3859C20.3497 12.0536 21.0725 10.8902 21.9829 9.8959C22.8932 8.90156 23.9641 8.11466 25.1957 7.53543C26.4273 6.95619 27.7392 6.66663 29.1315 6.66663C30.5237 6.66663 31.8356 6.95619 33.0672 7.53543C34.2987 8.11466 35.3741 8.90156 36.2934 9.8959C37.2126 10.8902 37.9399 12.0536 38.4754 13.3859C39.0109 14.7182 39.2786 16.1374 39.2786 17.6434C39.2786 19.1494 39.0109 20.5686 38.4754 21.9009C37.9399 23.2331 37.2126 24.3965 36.2934 25.3909C35.3741 26.3852 34.2987 27.1721 33.0672 27.7513C31.8356 28.3306 30.5237 28.6201 29.1315 28.6201C27.7392 28.6201 26.4273 28.3306 25.1957 27.7513C23.9641 27.1721 22.8932 26.3852 21.9829 25.3909C21.0725 24.3965 20.3497 23.2331 19.8142 21.9009C19.2788 20.5686 19.011 19.1494 19.011 17.6434ZM24.3121 17.6434C24.3121 18.3771 24.4371 19.0722 24.687 19.7287C24.9369 20.3852 25.2805 20.9644 25.7178 21.4665C26.1551 21.9684 26.6682 22.3692 27.2573 22.6684C27.8463 22.9677 28.471 23.1173 29.1315 23.1173C29.7919 23.1173 30.4165 22.9677 31.0056 22.6684C31.5946 22.3692 32.1122 21.9684 32.5585 21.4665C33.0046 20.9644 33.3527 20.3852 33.6026 19.7287C33.8524 19.0722 33.9774 18.3771 33.9774 17.6434C33.9774 16.929 33.8524 16.2387 33.6026 15.5726C33.3527 14.9064 33.0046 14.3272 32.5585 13.8348C32.1122 13.3425 31.5946 12.9467 31.0056 12.6474C30.4165 12.348 29.7919 12.1984 29.1315 12.1984C28.471 12.1984 27.8463 12.348 27.2573 12.6474C26.6682 12.9467 26.1551 13.3425 25.7178 13.8348C25.2805 14.3272 24.9369 14.9064 24.687 15.5726C24.4371 16.2387 24.3121 16.929 24.3121 17.6434Z" fill="#2E005D"/>
<path d="M50.8465 28.6207C49.4186 28.6207 48.0799 28.3312 46.8304 27.7519C45.581 27.1727 44.4878 26.3906 43.5507 25.4059C42.6136 24.4213 41.8728 23.2627 41.3285 21.9304C40.7841 20.5982 40.5118 19.179 40.5118 17.6729C40.5118 16.1669 40.7841 14.7477 41.3285 13.4154C41.8728 12.0832 42.6136 10.9199 43.5507 9.92544C44.4878 8.9311 45.581 8.14431 46.8304 7.56497C48.0799 6.98573 49.4186 6.69617 50.8465 6.69617C52.8098 6.69617 54.5189 7.13057 55.9736 7.99947C57.4282 8.86828 58.6107 10.0654 59.5211 11.5908C59.6103 11.7453 59.6326 11.9239 59.588 12.1266C59.5434 12.3293 59.4497 12.479 59.3069 12.5756L56.0941 14.8057C55.9513 14.9022 55.7906 14.9359 55.6122 14.907C55.4337 14.8781 55.282 14.7864 55.157 14.6319C54.6037 13.8982 53.9834 13.3093 53.2962 12.8651C52.609 12.4211 51.7924 12.199 50.8465 12.199C50.1682 12.199 49.5301 12.3486 48.9322 12.6479C48.3342 12.9473 47.8121 13.3479 47.3658 13.8498C46.9197 14.3519 46.5672 14.9359 46.3083 15.6021C46.0496 16.2683 45.9201 16.9585 45.9201 17.6729C45.9201 18.4066 46.0496 19.1018 46.3083 19.7582C46.5672 20.4147 46.9197 20.9891 47.3658 21.4815C47.8121 21.9738 48.3342 22.3698 48.9322 22.669C49.5301 22.9683 50.1682 23.1179 50.8465 23.1179C51.5247 23.1179 52.1941 22.9828 52.8545 22.7124C53.5149 22.4421 54.0415 21.9981 54.4341 21.3801C54.5233 21.2256 54.5323 21.0857 54.4609 20.9602C54.3895 20.8347 54.2646 20.7719 54.0861 20.7719H51.0071C50.8286 20.7719 50.6769 20.7044 50.5519 20.5692C50.427 20.434 50.3645 20.2699 50.3645 20.0768V16.6303C50.3645 16.4372 50.427 16.2731 50.5519 16.1379C50.6769 16.0028 50.8286 15.9352 51.0071 15.9352H60.2172C60.3957 15.9352 60.5519 15.9979 60.6858 16.1235C60.8196 16.2489 60.8955 16.4179 60.9133 16.6303C60.949 16.9585 60.9668 17.3591 60.9668 17.8322C60.9668 18.3053 60.9401 18.7928 60.8866 19.2949C60.7616 20.6271 60.4135 21.8629 59.8424 23.0021C59.2712 24.1412 58.5349 25.126 57.6336 25.9562C56.7321 26.7865 55.7014 27.4382 54.5412 27.9113C53.381 28.3842 52.1495 28.6207 50.8465 28.6207Z" fill="#2E005D"/>
<path d="M72.5348 28.606C71.1068 28.606 69.7681 28.3164 68.5187 27.7372C67.2693 27.1579 66.176 26.3759 65.239 25.3912C64.3019 24.4065 63.5612 23.2479 63.0168 21.9157C62.4724 20.5834 62.2002 19.1642 62.2002 17.6582C62.2002 16.1521 62.4724 14.7329 63.0168 13.4007C63.5612 12.0684 64.3019 10.905 65.239 9.91067C66.176 8.91633 67.2693 8.12943 68.5187 7.5502C69.7681 6.97096 71.1068 6.6814 72.5348 6.6814C74.4982 6.6814 76.2072 7.1158 77.662 7.98471C79.1166 8.85351 80.2991 10.0507 81.2094 11.576C81.2987 11.7305 81.321 11.9091 81.2764 12.1118C81.2318 12.3146 81.138 12.4642 80.9952 12.5607L77.7824 14.7909C77.6396 14.8874 77.479 14.9212 77.3004 14.8922C77.1219 14.8633 76.9703 14.7715 76.8453 14.6171C76.292 13.8834 75.6718 13.2944 74.9846 12.8504C74.2974 12.4063 73.4808 12.1842 72.5348 12.1842C71.8566 12.1842 71.2184 12.3339 70.6204 12.6332C70.0225 12.9324 69.5005 13.3331 69.0542 13.8351C68.6079 14.3371 68.2554 14.9212 67.9967 15.5874C67.7378 16.2534 67.6085 16.9437 67.6085 17.6582C67.6085 18.3919 67.7378 19.087 67.9967 19.7434C68.2554 20.4 68.6079 20.9744 69.0542 21.4668C69.5005 21.9591 70.0225 22.355 70.6204 22.6542C71.2184 22.9535 71.8566 23.1032 72.5348 23.1032C73.213 23.1032 73.8823 22.968 74.5428 22.6976C75.2032 22.4273 75.7297 21.9833 76.1225 21.3654C76.2117 21.2109 76.2206 21.071 76.1492 20.9454C76.0778 20.8199 75.9529 20.7572 75.7744 20.7572H72.6954C72.5169 20.7572 72.3653 20.6896 72.2403 20.5544C72.1153 20.4193 72.0529 20.2551 72.0529 20.062V16.6155C72.0529 16.4224 72.1153 16.2583 72.2403 16.1232C72.3653 15.988 72.5169 15.9204 72.6954 15.9204H81.9055C82.0841 15.9204 82.2401 15.9832 82.374 16.1087C82.5079 16.2341 82.5837 16.4031 82.6017 16.6155C82.6374 16.9437 82.6552 17.3444 82.6552 17.8175C82.6552 18.2906 82.6284 18.778 82.5748 19.2801C82.4499 20.6123 82.1019 21.8481 81.5307 22.9873C80.9595 24.1265 80.2233 25.1112 79.3218 25.9415C78.4205 26.7717 77.3897 27.4234 76.2295 27.8965C75.0693 28.3695 73.8377 28.606 72.5348 28.606Z" fill="#2E005D"/>
<path d="M87.9112 20.9302H84.9393C84.743 20.9302 84.5824 20.8625 84.4574 20.7274C84.3325 20.5923 84.2611 20.4281 84.2432 20.2351L83.5739 7.75215C83.556 7.53977 83.6051 7.37082 83.7211 7.24538C83.8372 7.11985 83.9934 7.05713 84.1897 7.05713H88.6609C88.8394 7.05713 88.9866 7.11985 89.1027 7.24538C89.2186 7.37082 89.2678 7.53977 89.2499 7.75215L88.5806 20.2351C88.5628 20.4281 88.4913 20.5923 88.3663 20.7274C88.2415 20.8625 88.0897 20.9302 87.9112 20.9302Z" fill="#2E005D"/>
<path d="M105.357 12.3581H101.609C101.431 12.3581 101.279 12.4257 101.154 12.5608C101.029 12.696 100.966 12.8601 100.966 13.0532V27.5345C100.966 27.7276 100.908 27.8917 100.792 28.0268C100.676 28.162 100.52 28.2295 100.324 28.2295H96.3078C96.1293 28.2295 95.9776 28.162 95.8527 28.0268C95.7277 27.8917 95.6652 27.7276 95.6652 27.5345V13.0532C95.6652 12.8601 95.6073 12.696 95.4912 12.5608C95.3752 12.4257 95.219 12.3581 95.0227 12.3581H91.2208C91.0424 12.3581 90.8906 12.2905 90.7657 12.1553C90.6407 12.0202 90.5782 11.8561 90.5782 11.663V7.72406C90.5782 7.53098 90.6407 7.36685 90.7657 7.23177C90.8906 7.09658 91.0424 7.02893 91.2208 7.02893H105.357C105.554 7.02893 105.71 7.09658 105.826 7.23177C105.942 7.36685 106 7.53098 106 7.72406V11.663C106 11.8561 105.942 12.0202 105.826 12.1553C105.71 12.2905 105.554 12.3581 105.357 12.3581Z" fill="#2E005D"/>
<path d="M84.7864 28.371C84.7156 28.3328 84.6462 28.2911 84.5788 28.2457C84.2483 28.0229 83.9738 27.7151 83.7633 27.3677C82.9187 25.9735 83.2736 23.926 84.5372 22.9371C85.8009 21.9481 87.7862 22.1736 88.8113 23.4285C89.8364 24.6835 89.735 26.7763 88.5885 27.9105C88.3617 28.1348 88.1016 28.3232 87.8182 28.4598C87.7796 28.2521 87.728 28.0269 87.6612 27.7812C87.4556 27.0239 87.3033 25.9438 87.7037 25.3998C87.9266 25.0968 88.0255 24.864 88.0376 24.6574C88.0504 24.4404 88.0289 24.2846 87.9558 24.1051C87.9367 24.0585 87.897 24.0348 87.8844 23.9609C87.8761 23.9119 87.8496 23.8607 87.828 23.828C87.6609 23.5673 87.3436 23.816 87.3436 23.816L86.5314 24.4212C85.9583 24.1572 85.3779 24.3032 85.0452 24.9113C84.8337 25.3344 84.7612 25.6554 84.9439 26.0412C85.0114 26.1836 85.2222 26.3932 85.4044 26.6238C85.5848 26.8521 85.7361 27.1013 85.9138 27.2326C85.9856 27.2883 86.0626 27.3386 86.1424 27.3502C86.1828 27.356 86.2275 27.3538 86.2681 27.3464C86.38 27.3261 86.4881 27.239 86.577 27.1459C86.6345 27.0883 86.6735 27.0125 86.6827 26.9277C86.7217 26.5653 86.3767 26.0168 86.2206 25.8084C86.5131 26.1031 86.835 26.5779 86.798 26.96C86.7859 27.0858 86.7313 27.2042 86.6287 27.2992C86.5274 27.4022 86.4091 27.4743 86.3097 27.4963C86.2451 27.5105 86.1941 27.5184 86.1309 27.505C85.9343 27.4634 85.7512 27.2764 85.5691 27.0465C85.4711 26.923 85.3988 26.8006 85.3009 26.6686C85.3657 27.1432 85.15 27.7617 84.7864 28.371Z" fill="#2E005D"/>
<ellipse cx="86.4474" cy="25.6299" rx="3.12177" ry="3.377" fill="#111827"/>
</svg>
