<svg width="470" height="36" viewBox="0 0 470 36" fill="none" xmlns="http://www.w3.org/2000/svg">
<g clip-path="url(#clip0_3623_3324)">
<rect width="469.364" height="36" fill="white"/>
<path d="M0 32.3229V2.60723C0 2.31761 0.101471 2.07141 0.304252 1.86879C0.506872 1.66601 0.753071 1.5647 1.04269 1.5647H12.9029C17.4501 1.5647 21.1717 2.89685 24.0679 5.56146C25.6319 7.00955 26.8194 8.73279 27.6303 10.7313C28.4413 12.7297 28.8469 14.9743 28.8469 17.4651C28.8469 19.9559 28.4413 22.2077 27.6303 24.2205C26.8194 26.2335 25.6319 27.964 24.0679 29.4121C22.6198 30.7155 20.9617 31.7001 19.0936 32.3663C17.2256 33.0324 15.1619 33.3655 12.9029 33.3655H1.04269C0.753071 33.3655 0.506872 33.2641 0.304252 33.0614C0.101471 32.8587 0 32.6125 0 32.3229ZM9.64456 25.3719H12.9029C13.7139 25.3719 14.5538 25.2705 15.4226 25.0677C16.2915 24.8651 17.0735 24.4812 17.7687 23.9164C18.4637 23.3517 19.0357 22.5552 19.4847 21.5271C19.9335 20.4989 20.158 19.1594 20.158 17.5085C20.158 15.8576 19.9335 14.5181 19.4847 13.49C19.0357 12.4618 18.4564 11.6653 17.747 11.1006C17.0373 10.5358 16.2553 10.1521 15.4009 9.94932C14.5465 9.74653 13.7139 9.64523 12.9029 9.64523H9.64456C9.35495 9.64523 9.10874 9.74653 8.90612 9.94932C8.70334 10.1521 8.60203 10.3981 8.60203 10.6879V24.3292C8.60203 24.6189 8.70334 24.8651 8.90612 25.0677C9.10874 25.2705 9.35495 25.3719 9.64456 25.3719Z" fill="#2E005D"/>
<path d="M30.848 17.4651C30.848 15.2061 31.2825 13.0773 32.1514 11.0789C33.0202 9.08052 34.1932 7.33542 35.6704 5.84391C37.1474 4.3524 38.8851 3.17206 40.8837 2.3032C42.8821 1.43435 45.0109 1 47.2699 1C49.529 1 51.6578 1.43435 53.6561 2.3032C55.6545 3.17206 57.3995 4.3524 58.8911 5.84391C60.3826 7.33542 61.5628 9.08052 62.4318 11.0789C63.3007 13.0773 63.7351 15.2061 63.7351 17.4651C63.7351 19.7242 63.3007 21.853 62.4318 23.8514C61.5628 25.8498 60.3826 27.5949 58.8911 29.0864C57.3995 30.5779 55.6545 31.7582 53.6561 32.6271C51.6578 33.4959 49.529 33.9303 47.2699 33.9303C45.0109 33.9303 42.8821 33.4959 40.8837 32.6271C38.8851 31.7582 37.1474 30.5779 35.6704 29.0864C34.1932 27.5949 33.0202 25.8498 32.1514 23.8514C31.2825 21.853 30.848 19.7242 30.848 17.4651ZM39.4499 17.4651C39.4499 18.5657 39.6527 19.6084 40.0582 20.593C40.4636 21.5778 41.0212 22.4467 41.7308 23.1998C42.4403 23.9527 43.273 24.5538 44.2288 25.0026C45.1845 25.4516 46.1983 25.6761 47.2699 25.6761C48.3415 25.6761 49.3551 25.4516 50.311 25.0026C51.2667 24.5538 52.1066 23.9527 52.8307 23.1998C53.5547 22.4467 54.1194 21.5778 54.525 20.593C54.9304 19.6084 55.1332 18.5657 55.1332 17.4651C55.1332 16.3935 54.9304 15.3581 54.525 14.3589C54.1194 13.3597 53.5547 12.4908 52.8307 11.7522C52.1066 11.0138 51.2667 10.4201 50.311 9.97109C49.3551 9.52211 48.3415 9.29762 47.2699 9.29762C46.1983 9.29762 45.1845 9.52211 44.2288 9.97109C43.273 10.4201 42.4403 11.0138 41.7308 11.7522C41.0212 12.4908 40.4636 13.3597 40.0582 14.3589C39.6527 15.3581 39.4499 16.3935 39.4499 17.4651Z" fill="#2E005D"/>
<path d="M82.5055 33.9311C80.1885 33.9311 78.0163 33.4967 75.9888 32.6279C73.9615 31.759 72.1876 30.5859 70.667 29.1089C69.1465 27.6318 67.9445 25.8939 67.0612 23.8956C66.1778 21.8972 65.7361 19.7684 65.7361 17.5093C65.7361 15.2503 66.1778 13.1215 67.0612 11.1231C67.9445 9.12472 69.1465 7.37977 70.667 5.8881C72.1876 4.39659 73.9615 3.2164 75.9888 2.34739C78.0163 1.47853 80.1885 1.04419 82.5055 1.04419C85.6913 1.04419 88.4644 1.69579 90.825 2.99915C93.1853 4.30235 95.1041 6.09811 96.5813 8.38611C96.726 8.61784 96.7622 8.88575 96.6899 9.18984C96.6175 9.49393 96.4654 9.71842 96.2338 9.86331L91.0205 13.2085C90.7888 13.3532 90.5281 13.4039 90.2385 13.3604C89.9489 13.317 89.7027 13.1795 89.4999 12.9478C88.6021 11.8472 87.5956 10.9639 86.4805 10.2977C85.3655 9.63159 84.0404 9.29839 82.5055 9.29839C81.4049 9.29839 80.3694 9.52288 79.3993 9.97186C78.4289 10.4208 77.5818 11.0218 76.8577 11.7747C76.1337 12.5278 75.5617 13.4039 75.1417 14.4031C74.7218 15.4024 74.5118 16.4377 74.5118 17.5093C74.5118 18.6099 74.7218 19.6526 75.1417 20.6372C75.5617 21.622 76.1337 22.4837 76.8577 23.2223C77.5818 23.9607 78.4289 24.5546 79.3993 25.0034C80.3694 25.4524 81.4049 25.6769 82.5055 25.6769C83.6061 25.6769 84.6922 25.4741 85.7638 25.0685C86.8354 24.6631 87.6898 23.997 88.3269 23.0701C88.4717 22.8384 88.4863 22.6285 88.3704 22.4402C88.2546 22.2519 88.0518 22.1579 87.7622 22.1579H82.7661C82.4765 22.1579 82.2303 22.0565 82.0275 21.8538C81.8248 21.651 81.7235 21.4048 81.7235 21.1152V15.9455C81.7235 15.6557 81.8248 15.4096 82.0275 15.2069C82.2303 15.0041 82.4765 14.9028 82.7661 14.9028H97.7108C98.0005 14.9028 98.2539 14.9968 98.4711 15.1851C98.6882 15.3733 98.8114 15.6267 98.8404 15.9455C98.8983 16.4377 98.9272 17.0386 98.9272 17.7483C98.9272 18.4579 98.8838 19.1891 98.7969 19.9422C98.5942 21.9406 98.0294 23.7943 97.1027 25.503C96.1758 27.2118 94.9811 28.689 93.5185 29.9343C92.0558 31.1798 90.3832 32.1572 88.5008 32.8668C86.6182 33.5763 84.6198 33.9311 82.5055 33.9311Z" fill="#2E005D"/>
<path d="M117.698 33.9088C115.381 33.9088 113.209 33.4745 111.181 32.6056C109.154 31.7368 107.38 30.5637 105.86 29.0866C104.339 27.6096 103.137 25.8717 102.254 23.8734C101.37 21.875 100.929 19.7462 100.929 17.4871C100.929 15.2281 101.37 13.0993 102.254 11.1009C103.137 9.1025 104.339 7.35739 105.86 5.86588C107.38 4.37437 109.154 3.19403 111.181 2.32517C113.209 1.45632 115.381 1.02197 117.698 1.02197C120.884 1.02197 123.657 1.67358 126.018 2.97694C128.378 4.28014 130.297 6.0759 131.774 8.3639C131.919 8.59563 131.955 8.86353 131.882 9.16762C131.81 9.47172 131.658 9.69621 131.426 9.84094L126.213 13.1863C125.981 13.331 125.721 13.3816 125.431 13.3382C125.141 13.2948 124.895 13.1572 124.693 12.9256C123.795 11.825 122.788 10.9415 121.673 10.2754C120.558 9.60937 119.233 9.27617 117.698 9.27617C116.598 9.27617 115.562 9.50066 114.592 9.94964C113.622 10.3985 112.774 10.9996 112.05 11.7525C111.326 12.5056 110.754 13.3816 110.334 14.3809C109.914 15.38 109.704 16.4155 109.704 17.4871C109.704 18.5877 109.914 19.6304 110.334 20.615C110.754 21.5998 111.326 22.4614 112.05 23.2C112.774 23.9385 113.622 24.5323 114.592 24.9812C115.562 25.4301 116.598 25.6546 117.698 25.6546C118.799 25.6546 119.885 25.4519 120.956 25.0463C122.028 24.6409 122.882 23.9748 123.52 23.0479C123.664 22.8162 123.679 22.6063 123.563 22.418C123.447 22.2297 123.244 22.1356 122.955 22.1356H117.959C117.669 22.1356 117.423 22.0343 117.22 21.8315C117.017 21.6288 116.916 21.3826 116.916 21.0929V15.9231C116.916 15.6335 117.017 15.3873 117.22 15.1846C117.423 14.9819 117.669 14.8805 117.959 14.8805H132.903C133.193 14.8805 133.446 14.9746 133.664 15.1629C133.881 15.3511 134.004 15.6045 134.033 15.9231C134.091 16.4155 134.12 17.0164 134.12 17.7261C134.12 18.4357 134.076 19.1669 133.989 19.92C133.787 21.9184 133.222 23.772 132.295 25.4808C131.368 27.1896 130.174 28.6666 128.711 29.9121C127.248 31.1574 125.576 32.1349 123.693 32.8446C121.811 33.5541 119.812 33.9088 117.698 33.9088Z" fill="#2E005D"/>
<path d="M142.648 22.3953H137.826C137.507 22.3953 137.247 22.2938 137.044 22.0912C136.841 21.8884 136.725 21.6422 136.696 21.3526L135.61 2.62822C135.581 2.30966 135.661 2.05622 135.849 1.86808C136.038 1.67977 136.291 1.58569 136.61 1.58569H143.865C144.154 1.58569 144.393 1.67977 144.582 1.86808C144.77 2.05622 144.849 2.30966 144.82 2.62822L143.734 21.3526C143.705 21.6422 143.59 21.8884 143.387 22.0912C143.184 22.2938 142.938 22.3953 142.648 22.3953Z" fill="#2E005D"/>
<path d="M170.957 9.53715H164.875C164.586 9.53715 164.339 9.63862 164.137 9.84124C163.934 10.044 163.832 10.2902 163.832 10.5798V32.3018C163.832 32.5915 163.738 32.8377 163.55 33.0403C163.362 33.2431 163.108 33.3444 162.79 33.3444H156.273C155.984 33.3444 155.737 33.2431 155.535 33.0403C155.332 32.8377 155.231 32.5915 155.231 32.3018V10.5798C155.231 10.2902 155.136 10.044 154.948 9.84124C154.76 9.63862 154.506 9.53715 154.188 9.53715H148.019C147.729 9.53715 147.483 9.43584 147.28 9.23305C147.078 9.03043 146.976 8.78424 146.976 8.49462V2.58615C146.976 2.29653 147.078 2.05033 147.28 1.84771C147.483 1.64493 147.729 1.54346 148.019 1.54346H170.957C171.276 1.54346 171.529 1.64493 171.718 1.84771C171.906 2.05033 172 2.29653 172 2.58615V8.49462C172 8.78424 171.906 9.03043 171.718 9.23305C171.529 9.43584 171.276 9.53715 170.957 9.53715Z" fill="#2E005D"/>
<path d="M137.578 33.5565C137.463 33.4992 137.35 33.4367 137.241 33.3687C136.705 33.0343 136.259 32.5727 135.918 32.0516C134.547 29.9603 135.123 26.889 137.173 25.4057C139.224 23.9222 142.445 24.2604 144.109 26.1428C145.772 28.0253 145.608 31.1645 143.747 32.8658C143.379 33.2022 142.957 33.4849 142.497 33.6898C142.435 33.3782 142.351 33.0404 142.243 32.6719C141.909 31.5359 141.662 29.9158 142.312 29.0998C142.673 28.6452 142.834 28.2961 142.853 27.9862C142.874 27.6607 142.839 27.4269 142.721 27.1577C142.69 27.0878 142.625 27.0522 142.605 26.9414C142.591 26.8679 142.548 26.7911 142.513 26.742C142.242 26.3511 141.727 26.724 141.727 26.724L140.409 27.6319C139.48 27.2359 138.538 27.4549 137.998 28.367C137.655 29.0017 137.537 29.4832 137.833 30.0619C137.943 30.2755 138.285 30.5899 138.581 30.9358C138.873 31.2781 139.119 31.652 139.407 31.849C139.524 31.9325 139.649 32.0079 139.778 32.0254C139.844 32.0341 139.916 32.0307 139.982 32.0196C140.164 31.9892 140.339 31.8585 140.483 31.7189C140.577 31.6326 140.64 31.5189 140.655 31.3917C140.718 30.848 140.158 30.0253 139.905 29.7127C140.38 30.1547 140.902 30.8669 140.842 31.4401C140.822 31.6287 140.734 31.8064 140.567 31.9489C140.403 32.1034 140.211 32.2115 140.05 32.2444C139.945 32.2658 139.862 32.2777 139.759 32.2576C139.44 32.1952 139.143 31.9146 138.848 31.5698C138.689 31.3846 138.572 31.2009 138.413 31.003C138.518 31.7149 138.168 32.6426 137.578 33.5565Z" fill="#2E005D"/>
<ellipse cx="140.273" cy="29.4449" rx="5.06551" ry="5.0655" fill="#2E005D"/>
<path d="M188 2.97149C188 2.54149 188.301 2.24049 188.731 2.24049H199.438C209.715 2.24049 215.219 8.64749 215.219 17.9785C215.219 27.6105 209.672 33.7165 199.438 33.7165H188.731C188.301 33.7165 188 33.4155 188 32.9855V2.97149ZM199.395 30.9215C207.221 30.9215 212.252 26.8365 212.252 18.0645C212.252 9.24949 207.221 5.03549 199.395 5.03549H191.44C191.096 5.03549 190.881 5.20749 190.881 5.55149V30.4055C190.881 30.7065 191.096 30.9215 191.44 30.9215H199.395Z" fill="#9B86FF"/>
<path d="M220.04 17.9785C220.04 9.03449 226.92 1.72449 236.294 1.72449C245.711 1.72449 252.591 9.03449 252.591 17.9785C252.591 26.9655 245.711 34.2325 236.294 34.2325C226.92 34.2325 220.04 26.9655 220.04 17.9785ZM223.007 17.9785C223.007 25.5035 228.64 31.3515 236.294 31.3515C243.948 31.3515 249.581 25.5035 249.581 17.9785C249.581 10.4965 243.948 4.60549 236.294 4.60549C228.64 4.60549 223.007 10.4965 223.007 17.9785Z" fill="#9B86FF"/>
<path d="M273.633 34.2755C264.517 34.2755 257.035 26.9655 257.035 18.0215C257.035 9.07749 264.517 1.72449 273.633 1.72449C279.696 1.72449 284.641 4.30449 287.694 9.24949C287.952 9.72249 287.823 10.1095 287.436 10.3675L286.318 11.0555C285.931 11.3135 285.501 11.2275 285.243 10.8405C282.62 7.01349 279.051 4.60549 273.633 4.60549C265.807 4.60549 260.002 11.0125 260.002 18.0215C260.002 25.0735 265.377 31.3945 273.719 31.3945C281.029 31.3945 285.114 26.9225 286.103 20.8595C286.189 20.4725 286.017 20.2575 285.673 20.2575H273.418C272.988 20.2575 272.687 19.9995 272.687 19.5695V18.3655C272.687 17.9355 272.988 17.6345 273.418 17.6345H288.597C289.027 17.6345 289.285 17.8925 289.285 18.3655C289.285 19.0105 289.242 19.6125 289.199 20.2145C288.382 27.8685 282.835 34.2755 273.633 34.2755Z" fill="#9B86FF"/>
<path d="M311.231 16.0435C311.231 16.3875 311.446 16.6025 311.79 16.6025H326.152C326.582 16.6025 326.84 16.8605 326.84 17.2905V18.6665C326.84 19.0965 326.582 19.3545 326.152 19.3545H311.79C311.446 19.3545 311.231 19.5695 311.231 19.9135V30.4055C311.231 30.7065 311.446 30.9215 311.79 30.9215H328.087C328.56 30.9215 328.818 31.2225 328.818 31.6525V32.9855C328.818 33.4155 328.56 33.7165 328.087 33.7165H309.081C308.651 33.7165 308.35 33.4155 308.35 32.9855V2.92849C308.35 2.49849 308.651 2.19749 309.081 2.19749H328.087C328.56 2.19749 328.818 2.49849 328.818 2.92849V4.26149C328.818 4.69149 328.56 4.99249 328.087 4.99249H311.79C311.446 4.99249 311.231 5.20749 311.231 5.50849V16.0435Z" fill="#9B86FF"/>
<path d="M347.916 17.4625C347.744 17.6775 347.744 17.9785 347.916 18.2365L358.107 32.8565C358.451 33.3725 358.279 33.7165 357.677 33.7165H355.742C355.355 33.7165 355.054 33.5445 354.839 33.2435L346.153 20.6015C345.938 20.3005 345.594 20.3005 345.379 20.6015L336.693 33.2435C336.478 33.5445 336.177 33.7165 335.79 33.7165H333.855C333.296 33.7165 333.081 33.3725 333.425 32.8565L343.616 18.2795C343.788 18.0215 343.788 17.7205 343.616 17.5055L333.597 3.10049C333.296 2.58449 333.511 2.24049 334.07 2.24049H336.005C336.392 2.24049 336.693 2.41249 336.908 2.71349L345.379 15.0545C345.594 15.3555 345.938 15.3555 346.153 15.0545L354.667 2.67049C354.882 2.36949 355.183 2.24049 355.57 2.24049H357.462C358.064 2.24049 358.236 2.58449 357.892 3.10049L347.916 17.4625Z" fill="#9B86FF"/>
<path d="M368.101 22.7085C367.757 22.7085 367.542 22.9235 367.542 23.2675V32.9855C367.542 33.4155 367.284 33.7165 366.854 33.7165H365.392C364.962 33.7165 364.661 33.4155 364.661 32.9855V2.97149C364.661 2.54149 364.962 2.24049 365.392 2.24049H375.884C383.538 2.24049 387.494 6.71249 387.494 12.4745C387.494 18.1935 383.71 22.7085 375.755 22.7085H368.101ZM368.101 5.03549C367.757 5.03549 367.542 5.20749 367.542 5.55149V19.3975C367.542 19.7415 367.757 19.9135 368.101 19.9135H375.798C382.076 19.9135 384.484 16.3015 384.484 12.4315C384.484 8.56149 382.076 5.03549 375.798 5.03549H368.101Z" fill="#9B86FF"/>
<path d="M396.181 16.0435C396.181 16.3875 396.396 16.6025 396.74 16.6025H411.102C411.532 16.6025 411.79 16.8605 411.79 17.2905V18.6665C411.79 19.0965 411.532 19.3545 411.102 19.3545H396.74C396.396 19.3545 396.181 19.5695 396.181 19.9135V30.4055C396.181 30.7065 396.396 30.9215 396.74 30.9215H413.037C413.51 30.9215 413.768 31.2225 413.768 31.6525V32.9855C413.768 33.4155 413.51 33.7165 413.037 33.7165H394.031C393.601 33.7165 393.3 33.4155 393.3 32.9855V2.92849C393.3 2.49849 393.601 2.19749 394.031 2.19749H413.037C413.51 2.19749 413.768 2.49849 413.768 2.92849V4.26149C413.768 4.69149 413.51 4.99249 413.037 4.99249H396.74C396.396 4.99249 396.181 5.20749 396.181 5.50849V16.0435Z" fill="#9B86FF"/>
<path d="M420.654 33.7165C420.224 33.7165 419.923 33.4155 419.923 32.9855V2.97149C419.923 2.54149 420.224 2.24049 420.654 2.24049H433.554C439.402 2.24049 443.616 6.58349 443.616 12.5605C443.616 17.7635 440.821 21.3755 435.833 22.2355C435.446 22.3215 435.36 22.6225 435.532 22.9235L442.412 32.8565C442.713 33.3725 442.541 33.7165 441.982 33.7165H440.133C439.789 33.7165 439.445 33.5445 439.273 33.2865L432.264 23.0095C432.092 22.7515 431.877 22.6655 431.619 22.6655H423.363C423.019 22.6655 422.804 22.8805 422.804 23.1815V32.9855C422.804 33.4155 422.546 33.7165 422.116 33.7165H420.654ZM422.804 19.3115C422.804 19.6555 423.019 19.8705 423.363 19.8705H433.167C436.349 19.8705 440.649 18.3655 440.649 12.5175C440.649 9.67949 438.972 5.03549 433.167 5.03549H423.363C423.019 5.03549 422.804 5.20749 422.804 5.55149V19.3115Z" fill="#9B86FF"/>
<path d="M469.364 4.30449C469.364 4.73449 469.063 5.03549 468.633 5.03549H460.033C459.689 5.03549 459.517 5.20749 459.517 5.55149V32.9855C459.517 33.4155 459.216 33.7165 458.786 33.7165H457.324C456.894 33.7165 456.593 33.4155 456.593 32.9855V5.55149C456.593 5.20749 456.421 5.03549 456.077 5.03549H447.391C446.961 5.03549 446.66 4.73449 446.66 4.30449V2.97149C446.66 2.54149 446.961 2.24049 447.391 2.24049H468.633C469.063 2.24049 469.364 2.54149 469.364 2.97149V4.30449Z" fill="#9B86FF"/>
</g>
<defs>
<clipPath id="clip0_3623_3324">
<rect width="469.364" height="36" fill="white"/>
</clipPath>
</defs>
</svg>
