<svg width="655" height="655" viewBox="0 0 655 655" fill="none" xmlns="http://www.w3.org/2000/svg">
<rect width="655" height="655" rx="327.5" fill="black"/>
<path d="M327.5 20C497.328 20 635 157.672 635 327.5C635 497.327 497.327 635 327.5 635C157.673 635 20.0001 497.327 20 327.5C20 157.672 157.672 20 327.5 20ZM320.641 38.8047C319.641 38.8447 318.65 38.8946 317.65 38.9346C313.85 39.4446 310.04 39.8945 306.19 39.6445C305.71 39.6645 305.23 39.6851 304.75 39.7051C302.5 40.605 300.15 40.515 297.79 40.375C292.34 41.115 286.89 41.8445 281.44 42.6045C271.651 43.9645 262.05 46.235 252.521 48.835C221.771 57.2349 193.221 70.4248 166.891 88.3447C140.941 106.005 118.45 127.365 99.4404 152.375C81.3404 176.195 67.2805 202.185 57.2705 230.375C54.0205 239.515 51.2905 248.815 48.9805 258.245C46.3505 268.995 44.2605 279.875 42.7705 290.805C41.8405 297.655 41.4507 304.655 41.2207 311.604C40.5007 333.574 41.3607 355.435 45.4307 377.135C49.6307 399.565 56.0298 421.285 65.3398 442.115C87.8998 492.605 122.14 533.335 167.82 564.465C168.92 565.205 169.87 566.364 171.51 566.314C171.86 565.775 172.21 565.264 172.55 564.734C186.29 543.195 198.37 520.765 208.2 497.165C210.89 490.705 213.38 484.155 215.67 477.545C220.48 463.655 224.12 449.475 225.8 434.835C225.82 434.545 225.84 434.245 225.86 433.955C225.92 433.245 225.97 432.524 226.03 431.814C225.95 431.315 225.88 430.825 225.8 430.335C225.63 429.695 225.66 429.115 226.24 428.675C226.55 424.635 226.5 420.595 226.26 416.555C225.5 415.905 225.62 415.055 225.73 414.205C225.6 412.735 226.31 412.155 227.46 413.075C228.52 413.915 229.28 415.155 230.11 416.265C238.46 427.365 246.481 438.715 255.891 448.995C263.67 457.495 271.73 465.675 281.21 472.314C287.67 476.834 294.54 480.455 302.41 481.865C302.42 481.865 302.43 481.865 302.44 481.865L314.66 481.884C315.42 481.804 316.18 481.785 316.92 481.625C333.01 478.245 345.311 468.935 355.601 456.645C360.66 450.605 363.02 443.315 364.09 435.585C364.12 435.295 364.14 435.005 364.17 434.715C364.23 434.005 364.28 433.285 364.33 432.575C363.93 431.255 363.931 429.945 364.351 428.625C364.301 427.905 364.24 427.194 364.19 426.484C363.911 425.954 363.87 425.414 364.08 424.854C363.39 421.175 363.09 417.424 362.13 413.774C359.73 404.675 356.01 396.134 351.45 387.935C341.97 370.885 329.83 355.895 316.11 342.115C316.058 342.125 316.009 342.137 315.963 342.153C316.015 342.134 316.07 342.117 316.13 342.104C315.14 340.425 313.67 339.305 312.03 338.365C312.928 340.051 313.726 341.755 315.308 342.855C315.439 342.532 315.63 342.269 315.958 342.155L315.843 342.208C315.59 342.345 315.433 342.58 315.32 342.865C315.316 342.862 315.312 342.858 315.308 342.855C315.305 342.862 315.302 342.869 315.3 342.875C321.29 350.875 326.921 359.124 331.971 367.734C337.651 377.404 342.841 387.285 346.851 397.865C350.19 406.675 352.81 415.485 353.55 424.854C353.553 424.86 353.556 424.866 353.559 424.871C353.559 424.866 353.56 424.86 353.561 424.854C354.561 426.644 354.541 428.445 353.601 430.255C353.6 430.249 353.598 430.243 353.598 430.236C353.595 430.242 353.593 430.249 353.59 430.255C353.23 437.345 350.721 443.595 345.931 448.795C340.411 454.775 334.25 460.055 327.05 463.905C314.84 470.435 302.59 471.064 290.36 463.774C284.37 460.194 278.69 456.235 273.57 451.475C267.62 445.945 262.29 439.865 257.17 433.585C247.66 421.915 238.52 409.935 228.37 398.805C220.78 390.485 213.14 382.215 205.53 373.915C198.03 365.745 191.76 356.825 187.98 346.255C185.851 340.295 184.29 334.185 183.32 327.995C182.64 323.675 183.21 319.164 183.21 314.734C183.01 314.175 183.05 313.624 183.34 313.104C183.39 312.667 183.43 312.22 183.47 311.782C183.352 311.502 183.287 311.229 183.271 310.964V310.954C183.287 311.22 183.352 311.493 183.471 311.774C183.47 311.777 183.47 311.78 183.47 311.782L183.471 311.785C184.171 311.055 184.101 310.194 183.851 309.314C183.483 309.782 183.277 310.277 183.268 310.802C183.275 310.274 183.48 309.775 183.851 309.305C183.991 303.595 185.63 298.075 187.4 292.825C191.05 281.975 195.72 271.455 201.41 261.475C211.77 243.315 225.58 228.555 244.21 218.655C254.86 212.995 266.17 209.495 278.2 208.375L278.17 208.415C278.249 208.397 278.328 208.381 278.407 208.364C278.354 208.364 278.3 208.364 278.246 208.364C284.481 206.987 290.786 207.565 297.07 207.705C297.37 207.705 297.66 208.085 297.95 208.285C297.923 208.285 297.895 208.285 297.867 208.285C297.885 208.299 297.902 208.313 297.92 208.325C312.5 208.595 326.11 213.035 339.45 218.285C340.77 217.405 341.93 216.644 343.07 215.854C366.7 199.575 390.321 183.275 413.98 167.015C420.67 162.415 427.9 159.005 436.03 157.795C442.11 156.895 447.891 157.865 452.971 161.314C458.741 165.234 462.33 170.945 464.05 177.595C464.95 181.095 466.3 184.215 468.38 187.075C469.8 189.025 470.951 191.095 471.931 193.305C476.411 203.415 478.07 214.135 478.92 225.045C478.932 225.079 478.943 225.114 478.955 225.148C478.96 225.104 478.965 225.059 478.971 225.015C479.901 227.565 479.921 230.115 478.971 232.675C478.967 232.644 478.964 232.614 478.961 232.583C478.947 232.623 478.935 232.665 478.92 232.705C478.51 237.195 478.41 241.735 477.62 246.155C476.12 254.535 472.98 262.395 469.08 269.955C463.78 280.225 457.261 289.685 450.221 298.805C446.821 303.215 443.41 307.615 440.73 312.515C431.41 329.545 426.79 347.895 425.51 367.165C425.512 367.17 425.513 367.176 425.515 367.182C425.53 367.163 425.544 367.143 425.56 367.125C425.77 367.685 425.729 368.225 425.439 368.745C425.434 368.737 425.429 368.729 425.423 368.721C425.412 368.742 425.403 368.764 425.391 368.785C425.341 369.465 425.3 370.155 425.25 370.845C425.252 370.851 425.253 370.858 425.255 370.864C425.267 370.845 425.278 370.824 425.29 370.805C425.7 372.195 425.66 373.535 424.91 374.814C424.909 374.806 424.907 374.797 424.905 374.788C424.893 374.81 424.883 374.833 424.87 374.854V399.755C424.881 399.772 424.89 399.79 424.9 399.808C424.907 399.78 424.913 399.752 424.92 399.725C425.55 400.765 425.68 401.855 425.22 402.995C425.211 402.982 425.204 402.968 425.195 402.955C425.187 402.978 425.179 403.001 425.17 403.024C425.24 404.224 425.321 405.415 425.391 406.604C425.391 406.611 425.391 406.618 425.392 406.624C425.405 406.61 425.418 406.597 425.43 406.584C425.429 406.581 425.43 406.578 425.43 406.575H425.439C425.437 406.578 425.433 406.581 425.43 406.584C425.449 406.881 425.46 407.188 425.479 407.484C425.465 407.45 425.448 407.415 425.433 407.381C425.435 407.426 425.437 407.47 425.44 407.515C425.89 411.105 425.68 414.735 426.12 418.365C426.5 421.545 427.08 424.765 427.2 428.024C427.29 430.344 427.461 432.815 428.021 435.035C428.96 438.715 429.431 442.445 430.061 446.155C432.311 459.335 435.041 472.405 438.351 485.354C440.981 495.674 444.031 505.904 446.811 516.194C449.901 527.644 453.011 539.095 456.141 550.524C458.631 559.604 461.69 568.555 464.57 577.545C464.68 577.875 465.14 578.394 465.67 578.354C465.87 578.324 466.01 578.335 466.11 578.285C466.78 577.935 467.45 577.575 468.11 577.205C500.41 559.155 528.201 535.735 551.521 507.035C572.661 481.015 588.72 452.144 599.78 420.484C605.19 404.985 609.02 389.114 611.86 372.975C612.78 367.775 612.88 362.485 614 357.325C614.03 357.045 614.05 356.755 614.08 356.465C614.14 355.765 614.211 355.075 614.271 354.375C613.871 353.475 614.03 352.645 614.61 351.875C614.65 350.905 614.7 349.925 614.74 348.955C614.53 348.395 614.57 347.845 614.86 347.325C614.91 346.635 614.95 345.954 615 345.274C614.59 343.645 614.601 342.045 615.391 340.505C615.481 337.745 615.57 334.994 615.66 332.234C615.39 331.205 615.4 330.174 615.71 329.145C615.7 327.135 615.69 325.125 615.69 323.115C615.4 322.345 615.391 321.565 615.641 320.785C615.571 317.525 615.49 314.265 615.42 311.005C614.87 309.975 614.62 308.915 615.05 307.785C615 307.085 614.941 306.385 614.891 305.685C614.601 305.155 614.57 304.615 614.78 304.055C614.74 303.075 614.69 302.095 614.65 301.115C614.07 300.095 613.84 299.025 614.28 297.885C614.21 297.185 614.15 296.495 614.08 295.795C614.05 295.515 614.02 295.225 613.99 294.945C613.73 293.735 613.25 292.524 613.25 291.314C613.23 286.535 612.2 281.865 611.44 277.205C608.65 260.075 604.16 243.355 598.11 227.085C581.07 181.225 554.22 142.084 517.41 109.854C480.79 77.7946 438.72 56.3846 391.21 45.7246C386.73 44.7247 382.09 44.3051 377.65 43.2852C371.39 41.8552 365.03 41.415 358.75 40.375C356.4 40.515 354.05 40.6051 351.79 39.7051C351.3 39.6851 350.82 39.6645 350.34 39.6445C346.49 39.8845 342.68 39.4646 338.88 38.9346C337.88 38.8946 336.89 38.8447 335.891 38.8047H320.641ZM302.44 481.865C306.52 483.095 310.611 483.105 314.69 481.885C314.68 481.885 314.67 481.884 314.66 481.884V481.885C310.59 481.885 306.51 481.875 302.44 481.865ZM364.11 435.575C364.53 435.325 364.64 435.035 364.19 434.705C364.16 434.995 364.14 435.285 364.11 435.575ZM225.83 434.825C226.24 434.555 226.331 434.274 225.891 433.944C225.871 434.234 225.85 434.535 225.83 434.825ZM364.359 428.615C363.95 429.925 363.94 431.245 364.34 432.564C365.07 431.255 365.059 429.935 364.359 428.615ZM226.27 428.675C225.701 429.114 225.661 429.692 225.829 430.33C225.902 430.298 225.977 430.271 226.052 430.241C225.978 430.271 225.904 430.301 225.831 430.334C225.91 430.831 225.981 431.318 226.061 431.805C226.64 431.335 226.58 430.735 226.38 430.115C226.307 430.142 226.236 430.168 226.166 430.195C226.235 430.169 226.303 430.141 226.37 430.115C226.34 429.635 226.3 429.155 226.27 428.675ZM225.819 430.335H225.83C225.83 430.333 225.83 430.332 225.829 430.33C225.826 430.331 225.823 430.334 225.819 430.335ZM353.559 424.871C353.361 426.659 353.371 428.448 353.598 430.236C354.526 428.438 354.546 426.65 353.559 424.871ZM364.09 424.845C363.89 425.405 363.92 425.945 364.2 426.475C364.79 425.885 364.61 425.355 364.09 424.845ZM225.76 414.205C225.65 415.055 225.53 415.905 226.29 416.555C226.48 415.685 226.63 414.835 225.76 414.205ZM425.392 406.624C425.312 406.705 425.214 406.797 425.229 406.854C425.271 407.038 425.354 407.208 425.433 407.381C425.418 407.13 425.408 406.874 425.392 406.624ZM424.9 399.808C424.639 400.885 424.55 401.952 425.195 402.955C425.615 401.859 425.491 400.811 424.9 399.808ZM425.255 370.864C424.511 372.109 424.662 373.448 424.905 374.788C425.606 373.534 425.642 372.214 425.255 370.864ZM425.515 367.182C425.12 367.668 425.028 368.171 425.423 368.721C425.687 368.225 425.71 367.713 425.515 367.182ZM614.03 357.295V357.305C614.11 357.225 614.26 357.134 614.26 357.064C614.25 356.845 614.17 356.644 614.11 356.435C614.08 356.715 614.06 357.005 614.03 357.295ZM614.64 351.845C614.06 352.615 613.9 353.445 614.3 354.345C614.97 353.585 614.92 352.735 614.64 351.845ZM614.891 347.295C614.591 347.825 614.561 348.365 614.771 348.925C615.2 348.405 615.3 347.875 614.891 347.295ZM615.42 340.484C614.62 342.024 614.62 343.625 615.03 345.255C615.82 343.715 615.67 342.104 615.42 340.484ZM615.74 329.125C615.43 330.155 615.42 331.185 615.69 332.215C616.53 331.195 616.55 330.165 615.74 329.125ZM615.66 320.765C615.41 321.545 615.42 322.325 615.71 323.095C616.48 322.305 616.45 321.525 615.66 320.765ZM183.35 313.115C183.05 313.645 183.02 314.185 183.22 314.745C183.71 314.235 183.88 313.705 183.35 313.115ZM615.07 307.765C614.65 308.905 614.891 309.964 615.44 310.984C615.69 309.865 615.83 308.764 615.07 307.765ZM614.811 304.035C614.601 304.595 614.63 305.135 614.92 305.665C615.46 305.085 615.31 304.545 614.811 304.035ZM614.311 297.865C613.871 299.005 614.101 300.065 614.681 301.095C614.931 299.975 615.06 298.875 614.311 297.865ZM614.11 295.785C614.17 295.695 614.31 295.585 614.29 295.515C614.23 295.315 614.11 295.125 614.021 294.935C614.051 295.215 614.08 295.505 614.11 295.785ZM478.955 225.148C478.666 227.624 478.695 230.108 478.961 232.583C479.844 230.107 479.825 227.624 478.955 225.148ZM278.2 208.375L278.19 208.365C278.209 208.365 278.228 208.364 278.246 208.364C278.231 208.368 278.216 208.372 278.2 208.375ZM297.04 207.745C290.82 207.597 284.58 207.04 278.407 208.364C284.897 208.344 291.377 208.315 297.867 208.285C297.595 208.079 297.322 207.745 297.04 207.745ZM358.79 40.3545C356.55 39.2746 354.18 39.5546 351.83 39.6846C354.08 40.5946 356.43 40.5045 358.79 40.3545ZM304.8 39.6846C302.45 39.5446 300.08 39.2745 297.84 40.3545C300.19 40.4945 302.54 40.5846 304.8 39.6846ZM317.7 38.915C313.85 38.645 310.01 38.515 306.24 39.625C310.09 39.875 313.9 39.425 317.7 38.915ZM350.38 39.625C346.61 38.515 342.77 38.645 338.92 38.915C342.72 39.435 346.53 39.865 350.38 39.625ZM335.92 38.7852C333.28 37.5152 330.46 38.1745 327.73 38.1445C325.391 38.1145 322.941 37.5953 320.681 38.7852H335.92Z" fill="#9B86FF"/>
</svg>
